<?xml version="1.0" encoding="utf-8"?>
<!-- Generator: Adobe Illustrator 27.8.1, SVG Export Plug-In . SVG Version: 6.00 Build 0)  -->
<svg version="1.1" id="Layer_1" xmlns="http://www.w3.org/2000/svg" xmlns:xlink="http://www.w3.org/1999/xlink" x="0px" y="0px"
	 viewBox="0 0 136 56" style="enable-background:new 0 0 136 56;" xml:space="preserve">
<style type="text/css">
	.st0{fill-rule:evenodd;clip-rule:evenodd;fill:#FFFFFF;}
	.st1{opacity:0.5;fill:#FFFFFF;}
	.st2{fill:#FFFFFF;}
</style>
<path class="st0" d="M93.5,0l17.1,17l-6.1,0L93.5,6L71.4,28l22.1,21.9l11.1-11l6.1,0L93.5,56L65.3,28L93.5,0z"/>
<path class="st1" d="M93.5,5.4L105.1,17l-4.8,0l-6.9-6.7L75.6,28l17.8,17.7l6.9-6.7l4.8,0L93.5,50.6L70.7,28L93.5,5.4z"/>
<path class="st2" d="M95.1,36.3V21.8h5.4v-2.4H86.8v2.4h5.4v14.6H95.1z"/>
<path class="st2" d="M104,36.3v-6.8h3.9c0.9,0,1.7-0.1,2.3-0.4c0.7-0.3,1.3-0.7,1.7-1.1c0.5-0.5,0.8-1,1.1-1.6
	c0.2-0.6,0.4-1.2,0.4-1.9c0-0.6-0.1-1.2-0.4-1.8c-0.2-0.6-0.6-1.1-1.1-1.6c-0.5-0.5-1-0.9-1.7-1.2c-0.7-0.3-1.5-0.5-2.3-0.5h-6.8v17
	H104z M107.3,27.1H104v-5.3h3.3c0.5,0,1,0.1,1.4,0.2c0.4,0.1,0.7,0.3,1,0.5c0.3,0.2,0.5,0.5,0.6,0.8s0.2,0.7,0.2,1
	c0,0.4-0.1,0.7-0.2,1.1c-0.1,0.3-0.3,0.6-0.5,0.9c-0.2,0.2-0.6,0.4-1,0.6C108.4,27,107.9,27.1,107.3,27.1z"/>
<path class="st2" d="M121.4,36.7c1,0,2-0.2,2.8-0.5c0.8-0.4,1.6-0.8,2.2-1.5c0.6-0.6,1.2-1.3,1.6-2.2c0.4-0.8,0.7-1.7,0.9-2.7H126
	c-0.1,0.6-0.3,1.1-0.6,1.7c-0.3,0.5-0.6,1-1,1.4c-0.4,0.4-0.8,0.8-1.4,1c-0.5,0.3-1.1,0.4-1.7,0.4c-0.6,0-1.2-0.1-1.8-0.4
	c-0.6-0.3-1.1-0.7-1.6-1.2c-0.5-0.6-0.9-1.3-1.1-2.1c-0.3-0.9-0.4-1.9-0.4-3c0-0.9,0.1-1.7,0.4-2.4c0.2-0.8,0.6-1.4,1-2
	c0.4-0.6,1-1,1.6-1.4c0.6-0.3,1.3-0.5,2-0.5c1.1,0,2.1,0.3,2.9,0.9c0.8,0.6,1.4,1.5,1.8,2.7h3c-0.3-0.9-0.6-1.7-1-2.4
	c-0.4-0.7-1-1.4-1.6-1.9c-0.6-0.5-1.4-0.9-2.2-1.2c-0.8-0.3-1.8-0.5-2.8-0.5c-1.3,0-2.4,0.2-3.3,0.7c-1,0.5-1.8,1.1-2.5,1.9
	c-0.7,0.8-1.2,1.7-1.5,2.8c-0.4,1-0.5,2.1-0.5,3.3c0,1.5,0.2,2.7,0.6,3.9c0.4,1.1,0.9,2.1,1.6,2.9c0.7,0.8,1.5,1.4,2.5,1.8
	S120.2,36.7,121.4,36.7z"/>
<path class="st2" d="M132.6,36.3v-17h-2.9v17H132.6z"/>
<path class="st2" d="M16.1,27v-1.8h0.6c0.4,0,0.8,0,1-0.1c0.2,0,0.3-0.1,0.5-0.2c0.2-0.1,0.3-0.3,0.4-0.5c0.1-0.2,0.2-0.5,0.2-0.8
	c0-0.4-0.1-0.7-0.3-0.9c-0.2-0.2-0.4-0.4-0.7-0.5c-0.2,0-0.6-0.1-1.2-0.1h-1.6V27H16.1z M16.7,24.4h-0.5V23h0.5c0.4,0,0.6,0,0.7,0
	c0.2,0,0.3,0.1,0.4,0.2c0.1,0.1,0.2,0.3,0.2,0.4c0,0.1,0,0.3-0.1,0.4c-0.1,0.1-0.2,0.2-0.3,0.2C17.3,24.3,17.1,24.4,16.7,24.4z
	 M19.8,27l0.4-1.1h2l0.4,1.1h1.1l-2-4.9h-1L18.8,27H19.8z M21.9,25.1h-1.3l0.7-1.8L21.9,25.1z M25.3,27v-2h0.2c0.2,0,0.4,0,0.5,0.1
	c0.1,0,0.2,0.1,0.3,0.2c0.1,0.1,0.3,0.3,0.5,0.7l0.7,1.1h1.2l-0.6-1c-0.2-0.4-0.4-0.6-0.6-0.8c-0.1-0.1-0.3-0.3-0.5-0.4
	c0.4-0.1,0.8-0.2,1-0.5c0.2-0.2,0.3-0.5,0.3-0.9c0-0.3-0.1-0.5-0.2-0.8c-0.1-0.2-0.3-0.4-0.6-0.5c-0.2-0.1-0.6-0.1-1.1-0.1h-2.1V27
	H25.3z M26.1,24.2h-0.8V23h0.8c0.4,0,0.6,0,0.7,0c0.2,0,0.3,0.1,0.4,0.2c0.1,0.1,0.1,0.2,0.1,0.4c0,0.1,0,0.3-0.1,0.4
	c-0.1,0.1-0.2,0.2-0.3,0.2C26.8,24.2,26.5,24.2,26.1,24.2L26.1,24.2z M31.4,27v-4h1.5v-0.8H29V23h1.5v4H31.4z M34.5,27v-3.2l2,3.2h1
	v-4.9h-0.9v3.3l-2-3.3h-1V27H34.5z M42.3,27v-0.8h-2.7v-1.3h2.5v-0.8h-2.5V23h2.6v-0.8h-3.6V27H42.3z M44.3,27v-2h0.2
	c0.2,0,0.4,0,0.5,0.1c0.1,0,0.2,0.1,0.3,0.2c0.1,0.1,0.3,0.3,0.5,0.7l0.7,1.1h1.2l-0.6-1c-0.2-0.4-0.4-0.6-0.6-0.8
	c-0.1-0.1-0.3-0.3-0.5-0.4c0.4-0.1,0.8-0.2,1-0.5c0.2-0.2,0.3-0.5,0.3-0.9c0-0.3-0.1-0.5-0.2-0.8c-0.1-0.2-0.3-0.4-0.6-0.5
	c-0.2-0.1-0.6-0.1-1.1-0.1h-2.1V27H44.3z M45,24.2h-0.8V23H45c0.4,0,0.6,0,0.7,0c0.2,0,0.3,0.1,0.4,0.2c0.1,0.1,0.1,0.2,0.1,0.4
	c0,0.1,0,0.3-0.1,0.4c-0.1,0.1-0.2,0.2-0.3,0.2C45.8,24.2,45.5,24.2,45,24.2L45,24.2z M50.1,27.1c0.4,0,0.8-0.1,1.1-0.2
	c0.3-0.1,0.5-0.3,0.7-0.5c0.2-0.2,0.2-0.5,0.2-0.8c0-0.3-0.1-0.6-0.2-0.8c-0.1-0.2-0.3-0.4-0.5-0.5c-0.2-0.1-0.6-0.2-1.1-0.4
	c-0.5-0.1-0.8-0.2-0.9-0.3c-0.1-0.1-0.1-0.2-0.1-0.3c0-0.1,0.1-0.2,0.2-0.3c0.2-0.1,0.4-0.2,0.7-0.2c0.3,0,0.5,0.1,0.6,0.2
	c0.1,0.1,0.2,0.3,0.3,0.5l1,0c0-0.4-0.2-0.8-0.5-1.1s-0.8-0.4-1.4-0.4c-0.4,0-0.7,0.1-1,0.2c-0.3,0.1-0.5,0.3-0.6,0.5
	c-0.1,0.2-0.2,0.4-0.2,0.7c0,0.4,0.2,0.7,0.5,1c0.2,0.2,0.6,0.4,1.1,0.5c0.4,0.1,0.7,0.2,0.8,0.2c0.2,0.1,0.3,0.1,0.4,0.2
	c0.1,0.1,0.1,0.2,0.1,0.3c0,0.2-0.1,0.3-0.2,0.5c-0.2,0.1-0.4,0.2-0.7,0.2c-0.3,0-0.5-0.1-0.7-0.2c-0.2-0.2-0.3-0.4-0.4-0.7l-1,0.1
	c0.1,0.5,0.3,1,0.6,1.2C49,27,49.4,27.1,50.1,27.1z M53.9,27v-2.1h1.9V27h1v-4.9h-1v1.9h-1.9v-1.9h-1V27H53.9z M58.9,27v-4.9h-1V27
	H58.9z M60.9,27v-1.8h0.6c0.4,0,0.8,0,1-0.1c0.2,0,0.3-0.1,0.5-0.2c0.2-0.1,0.3-0.3,0.4-0.5c0.1-0.2,0.2-0.5,0.2-0.8
	c0-0.4-0.1-0.7-0.3-0.9s-0.4-0.4-0.7-0.5c-0.2,0-0.6-0.1-1.2-0.1h-1.6V27H60.9z M61.5,24.4h-0.5V23h0.5c0.4,0,0.6,0,0.7,0
	c0.2,0,0.3,0.1,0.4,0.2c0.1,0.1,0.2,0.3,0.2,0.4c0,0.1,0,0.3-0.1,0.4c-0.1,0.1-0.2,0.2-0.3,0.2C62.1,24.3,61.8,24.4,61.5,24.4z"/>
<path class="st2" d="M4,25.7v-2.9h1v-0.6H2.3v0.6h1v2.9H4z M6.3,25.7v-1.5h1.4v1.5h0.7v-3.5H7.7v1.4H6.3v-1.4H5.5v3.5H6.3z
	 M11.8,25.7v-0.6h-2v-1h1.8v-0.6H9.8v-0.8h1.9v-0.6H9.1v3.5H11.8z"/>
<path class="st2" d="M4.5,33c0.5,0,1-0.1,1.3-0.4c0.3-0.3,0.6-0.7,0.7-1.2l-1-0.3c-0.1,0.4-0.2,0.6-0.4,0.8
	c-0.2,0.2-0.4,0.2-0.7,0.2c-0.4,0-0.6-0.1-0.9-0.4c-0.2-0.3-0.3-0.7-0.3-1.3c0-0.6,0.1-1,0.3-1.3c0.2-0.3,0.5-0.4,0.9-0.4
	c0.3,0,0.5,0.1,0.7,0.2c0.2,0.1,0.3,0.3,0.4,0.6l1-0.2C6.4,29,6.2,28.7,6,28.5C5.6,28.1,5.2,28,4.6,28c-0.7,0-1.2,0.2-1.7,0.7
	c-0.4,0.4-0.6,1.1-0.6,1.9c0,0.8,0.2,1.4,0.6,1.8C3.3,32.8,3.8,33,4.5,33z M8.4,32.9v-2.1h1.9v2.1h1V28h-1V30H8.4V28h-1v4.9H8.4z
	 M13,32.9l0.4-1.1h2l0.4,1.1h1.1l-2-4.9h-1L12,32.9H13z M15.1,31h-1.3l0.7-1.8L15.1,31z M18.5,32.9v-2h0.2c0.2,0,0.4,0,0.5,0.1
	c0.1,0,0.2,0.1,0.3,0.2c0.1,0.1,0.3,0.3,0.5,0.7l0.7,1.1h1.2l-0.6-1c-0.2-0.4-0.4-0.6-0.6-0.8c-0.1-0.1-0.3-0.3-0.5-0.4
	c0.4-0.1,0.8-0.2,1-0.5c0.2-0.2,0.3-0.5,0.3-0.9c0-0.3-0.1-0.5-0.2-0.8c-0.1-0.2-0.3-0.4-0.6-0.5c-0.2-0.1-0.6-0.1-1.1-0.1h-2.1v4.9
	H18.5z M19.2,30.1h-0.8v-1.2h0.8c0.4,0,0.6,0,0.7,0c0.2,0,0.3,0.1,0.4,0.2c0.1,0.1,0.1,0.2,0.1,0.4c0,0.1,0,0.3-0.1,0.4
	c-0.1,0.1-0.2,0.2-0.3,0.2C20,30.1,19.7,30.1,19.2,30.1L19.2,30.1z M24.6,32.9v-4h1.5V28h-3.9v0.8h1.5v4H24.6z M30.5,32.9v-0.8h-2.7
	v-1.3h2.5V30h-2.5v-1.1h2.6V28h-3.6v4.9H30.5z M32.4,32.9v-2h0.2c0.2,0,0.4,0,0.5,0.1c0.1,0,0.2,0.1,0.3,0.2
	c0.1,0.1,0.3,0.3,0.5,0.7l0.7,1.1h1.2l-0.6-1c-0.2-0.4-0.4-0.6-0.6-0.8s-0.3-0.3-0.5-0.4c0.4-0.1,0.8-0.2,1-0.5
	c0.2-0.2,0.3-0.5,0.3-0.9c0-0.3-0.1-0.5-0.2-0.8c-0.1-0.2-0.3-0.4-0.6-0.5C34.4,28.1,34,28,33.5,28h-2.1v4.9H32.4z M33.2,30.1h-0.8
	v-1.2h0.8c0.4,0,0.6,0,0.7,0c0.2,0,0.3,0.1,0.4,0.2c0.1,0.1,0.1,0.2,0.1,0.4c0,0.1,0,0.3-0.1,0.4C34.2,29.9,34.2,30,34,30
	C33.9,30.1,33.6,30.1,33.2,30.1L33.2,30.1z"/>
<path class="st2" d="M38.7,32.9v-3.5H38v3.5H38.7z M40.1,32.9v-2.3l1.4,2.3h0.7v-3.5h-0.7v2.3l-1.4-2.3h-0.7v3.5H40.1z M44.3,32.9
	c0.3,0,0.6,0,0.8-0.1c0.2-0.1,0.4-0.2,0.5-0.4c0.1-0.2,0.2-0.4,0.2-0.6c0-0.2,0-0.4-0.1-0.6c-0.1-0.2-0.2-0.3-0.4-0.4
	c-0.2-0.1-0.4-0.2-0.8-0.3c-0.3-0.1-0.6-0.2-0.7-0.2c-0.1-0.1-0.1-0.1-0.1-0.2c0-0.1,0-0.2,0.1-0.2c0.1-0.1,0.3-0.1,0.5-0.1
	c0.2,0,0.4,0,0.5,0.1c0.1,0.1,0.2,0.2,0.2,0.4l0.7,0c0-0.3-0.1-0.6-0.4-0.8c-0.2-0.2-0.6-0.3-1-0.3c-0.3,0-0.5,0-0.7,0.1
	s-0.3,0.2-0.4,0.4c-0.1,0.2-0.2,0.3-0.2,0.5c0,0.3,0.1,0.5,0.3,0.7c0.2,0.1,0.4,0.3,0.8,0.3c0.3,0.1,0.5,0.1,0.6,0.2
	c0.1,0,0.2,0.1,0.3,0.2c0,0.1,0.1,0.1,0.1,0.2c0,0.1-0.1,0.2-0.2,0.3c-0.1,0.1-0.3,0.1-0.5,0.1c-0.2,0-0.4-0.1-0.5-0.2
	c-0.1-0.1-0.2-0.3-0.3-0.5l-0.7,0.1c0,0.4,0.2,0.7,0.4,0.9C43.5,32.8,43.8,32.9,44.3,32.9z M47.8,32.9V30h1v-0.6H46V30h1v2.9H47.8z
	 M50,32.9v-3.5h-0.7v3.5H50z M52.2,32.9V30h1v-0.6h-2.8V30h1v2.9H52.2z M55.1,32.9c0.3,0,0.5,0,0.7-0.1c0.2-0.1,0.3-0.2,0.4-0.3
	c0.1-0.1,0.2-0.3,0.2-0.4c0-0.2,0.1-0.5,0.1-0.9v-1.8h-0.7v2c0,0.3,0,0.5,0,0.6c0,0.1-0.1,0.2-0.2,0.3s-0.3,0.1-0.5,0.1
	c-0.2,0-0.4,0-0.5-0.1c-0.1-0.1-0.2-0.2-0.2-0.3c0-0.1,0-0.3,0-0.6v-1.9h-0.7v1.9c0,0.4,0,0.7,0.1,0.9c0,0.1,0.1,0.3,0.2,0.4
	c0.1,0.1,0.2,0.2,0.4,0.3C54.5,32.9,54.8,32.9,55.1,32.9z M58.8,32.9V30h1v-0.6H57V30h1v2.9H58.8z M63,32.9v-0.6h-2v-1h1.8v-0.6H61
	V30h1.9v-0.6h-2.6v3.5H63z"/>
</svg>
